# xmcd
#
# Track frame offsets:
#	150
#	25377
#	41237
#	66905
#
# Disc length: 1199 seconds
#
# Revision: 0
# Processed by: cddbd v1.5.2PL0 Copyright (c) Steve Scherf et al.
# Submitted via: audiograbber 1.83.01
#
DISCID=3504ad04
DTITLE=Fun Factory - I Wanna B with U
DYEAR=1995
DGENRE=Eurodance
TTITLE0=I Wanna B with U (Homegirls Instromental Remix)
TTITLE1=I Wanna B with U (Mousse T's House Dub Edit)
TTITLE2=I Wanna B with U (Sequential one Remix)
TTITLE3=I Wanna B with U (Simon Harris' Jamaican Stylee)
EXTD=
EXTT0=
EXTT1=
EXTT2=
EXTT3=
PLAYORDER=
